{"title":"The Murder of Fred Hampton (1971) [h33t][snach]","uid":4857030,"size":735321466,"categoryP":"video","categoryS":"movies","magnet":"?xt=urn:btih:4a555c1be18b5bdbd5d23b40dc55601dd8a057fe&amp;dn=The+Murder+of+Fred+Hampton+%281971%29+%5Bh33t%5D%5Bsnach%5D&amp;tr=udp%3A%2F%2Ftracker.openbittorrent.com%3A80&amp;tr=udp%3A%2F%2Fopen.demonii.com%3A1337&amp;tr=udp%3A%2F%2Ftracker.coppersurfer.tk%3A6969&amp;tr=udp%3A%2F%2Fexodus.desync.com%3A6969","seeders":1,"leechers":0,"uploader":"finding_hope","files":3,"time":1240099172,"description":"--this is my own dvd capture of this great documentary--SNACH--\n\nThe Murder of Fred Hampton (1971)\n\n\nProgram Info\nFrom the back of the dvd:\nTHE MURDER OF FRED HAMPTON began as a film portrait of Hampton and the Illinois Black Panther Party, but half way through the shoot, Hampton was murdered. In an infamous moment in Chicago history and politics, over a dozen policeman burst into Hampton's apartment while its occupants were sleeping, killing Hampton and fellow Panther Mark Clark and brutalizing the other occupants. Filmmakers Mike Gray and Howard Alk arrived a few hours later to shoot film footage of the crime scene that was later used to contradict news reports and police testimony. Recently restored and reworked by Gray, THE MURDER OF FRED HAMPTON is a chilling slice of American history.\n\nU.S./1971/Black &amp; White/Fullscreen/88mins./English. All-Zone NTSC DVD\n\nDirectors: Mike Gray, Howard Alk\n\nStudio: FACETS - www.facets.org\n\nDVD Release Date: May 22, 2007\n\n2007 Chicago Doc Classic Award - Chicago International Documentary Festival\n****&quot;...political dynamite...&quot; - Roger Ebert, Chicago Sun-Times\n&quot;...an example of the power of independent media in providing the truth...&quot; - David Walker, Willamette Week Online\n\n\nVideo Info\nThe.Murder.of.Fred.Hampton.1971.DVDrip.xvid.mp3-snach.avi\n\nFormat                           : AVI\nFormat/Info                      : Audio Video Interleave\nFile size                        : 701 MiB\nDuration                         : 1h 28mn\nOverall bit rate                 : 1 102 Kbps\nMovie name                       : THEMURDEROFFREDHAMPTON\nDirector                         : Howard Alk\nGenre                            : Documentary\nWriting application              : MEncoder MasterSoft for Vista\nWriting library                  : Sog Dvd Ripper\n\nVideo\nFormat                           : MPEG-4 Visual\nFormat profile                   : Simple@L3\nFormat settings, BVOP            : No\nFormat settings, QPel            : No\nFormat settings, GMC             : No warppoints\nFormat settings, Matrix          : Default (H.263)\nCodec ID                         : XVID\nCodec ID/Hint                    : XviD\nDuration                         : 1h 28mn\nBit rate                         : 960 Kbps\nWidth                            : 592 pixels\nHeight                           : 448 pixels\nDisplay aspect ratio             : 4/3\nFrame rate                       : 29.970 fps\nResolution                       : 24 bits\nColorimetry                      : 4:2:0\nScan type                        : Progressive\nBits/(Pixel*Frame)               : 0.121\nStream size                      : 611 MiB (87%)\nWriting library                  : XviD 1.1.2 (UTC 2006-11-01)\n\nAudio\nFormat                           : MPEG Audio\nFormat version                   : Version 1\nFormat profile                   : Layer 3\nCodec ID                         : 55\nCodec ID/Hint                    : MP3\nDuration                         : 1h 28mn\nBit rate mode                    : Constant\nBit rate                         : 128 Kbps\nChannel(s)                       : 2 channels\nSampling rate                    : 48.0 KHz\nResolution                       : 16 bits\nStream size                      : 81.5 MiB (12%)\nAlignment                        : Aligned on interleaves\nInterleave, duration             : 24 ms (0.72 video frame)\nInterleave, preload duration     : 504 ms\nWriting library                  : LAME3.97\n\n\nTrackers:\nhttp://tracker.thepiratebay.se:80/announce\nhttp://denis.stalker.h3q.com:6969/announce\nhttp://open.tracker.thepiratebay.se/announce\nhttp://torrent-downloads.to:5869/announce\n\nVisit &amp; Join us at:\nhttp://ConspiracyCentral.net\n\nEnjoy &amp; Seed!\n\n\nquality pix:\n\n[IMG]http://img11.imageshack.us/img11/6947/vlcsnap2090609.th.png[/IMG]\n\n[IMG]http://img11.imageshack.us/img11/3669/vlcsnap2091667.th.png[/IMG]","torrent":{"xt":"urn:btih:4a555c1be18b5bdbd5d23b40dc55601dd8a057fe","amp;dn":"The+Murder+of+Fred+Hampton+%281971%29+%5Bh33t%5D%5Bsnach%5D","amp;tr":["udp%3A%2F%2Ftracker.openbittorrent.com%3A80","udp%3A%2F%2Fopen.demonii.com%3A1337","udp%3A%2F%2Ftracker.coppersurfer.tk%3A6969","udp%3A%2F%2Fexodus.desync.com%3A6969"],"infoHash":"4a555c1be18b5bdbd5d23b40dc55601dd8a057fe","infoHashBuffer":{"type":"Buffer","data":[74,85,92,27,225,139,91,219,213,210,59,64,220,85,96,29,216,160,87,254]},"announce":[],"urlList":[]}}